<svg xmlns="http://www.w3.org/2000/svg" width="512" height="478.96" viewBox="0 0 512 478.96"><g id="Group_695" data-name="Group 695" transform="translate(-2708.455 910.083)"><path id="Path_2022" data-name="Path 2022" d="M344.722,23.341a7.66,7.66,0,0,0-1.484-3.535,5.505,5.505,0,0,0-1.484-1.462c-.153-.109-.327-.218-.48-.327-6.9-4.561-29.982-12.023-64.023-19.137a3.93,3.93,0,0,0-1.877.524,3.765,3.765,0,0,0-1.7,2.64c.065,37.205-12.176,120.606-63.26,210.705a530.654,530.654,0,0,1-32.077,49.578,3.636,3.636,0,0,1-2.837.807,3.841,3.841,0,0,1-1.658-.742C139.079,228.459,100.085,182,69.47,127.973c-2.815-4.932-5.368-9.6-7.877-14.446H61.57a3.4,3.4,0,0,0-1.244-1.593,3.707,3.707,0,0,0-2.291-.676c-25.4.895-49.01,2.728-71.355,5.281a4.253,4.253,0,0,0-1.964,1.069,4.192,4.192,0,0,0-1.266,3.273,390.121,390.121,0,0,0,27.386,59.266C66.764,278.8,151.517,351.334,183.224,372l.022-.022a3.443,3.443,0,0,0,1.942.567,3.658,3.658,0,0,0,2.837-1.353h.022c31.248-34.7,64.613-77.422,91.627-124.119C343.959,135.938,349.7,41.518,344.722,23.341" transform="translate(2874.359 -890.294)" fill="#7fc646"></path><path id="Path_2023" data-name="Path 2023" d="M67.773,5.06V5.038C46.41,2.572,23.5.7-.549-.243A2.566,2.566,0,0,0-1.2-.025,3.474,3.474,0,0,0-3.1,4.187,571.638,571.638,0,0,0,40.955,66.879a2.477,2.477,0,0,0,.5.327A3.511,3.511,0,0,0,45.973,65.9a378.226,378.226,0,0,0,24.942-56.6h-.022a2.765,2.765,0,0,0,.087-.742A3.513,3.513,0,0,0,67.773,5.06" transform="translate(3000.222 -778.686)" fill="#22c3f3"></path><path id="Path_2024" data-name="Path 2024" d="M363.21,7.829a965.609,965.609,0,0,0-124.555-8.2C98.781-.376-14.58,31.614-14.58,39.84l.022.044c-7.026,4.8-6.394,106.007,63.456,226.744,66.947,115.7,172.977,207.192,188.623,211.665.044.044.022.24.087.262.153.087.633-.109.873-.131a.676.676,0,0,1,.175.044h0c.262.044.567.175.7.087.065-.022.044-.218.087-.262,6.525-1.855,28.717-18.854,57.193-46.326a4.216,4.216,0,0,0,1.222-2.531c0-.851-2.226-2.553-4.081-3.841-29.48-18.243-117.4-92.042-174.9-193.445-26.709-47.112-42.835-91.714-52.131-129.53v-.175a8.463,8.463,0,0,1,6.481-9.23c42.944-8.772,101.229-16.322,165.427-16.322A862.336,862.336,0,0,1,356.62,85.141h.022a3.607,3.607,0,0,0,3.95-2.64A318.685,318.685,0,0,0,365.7,10.84a3.735,3.735,0,0,0-.458-1.418,3.631,3.631,0,0,0-2.029-1.593" transform="translate(2725.899 -909.707)" fill="#fead2d"></path></g></svg>